<svg width="263" height="263" xmlns="http://www.w3.org/2000/svg"><g fill="none" fill-rule="evenodd"><circle fill="#F6790C" cx="131.5" cy="131.5" r="131.5"/><path d="M128.813 78.382a4.061 4.061 0 0 1 4.062 4.062V204.32a4.061 4.061 0 0 1-4.062 4.063 4.061 4.061 0 0 1-4.063-4.063v-12.187h-8.125v12.187a4.061 4.061 0 0 1-4.062 4.063 4.061 4.061 0 0 1-4.063-4.063v-12.187h-8.125v12.187a4.061 4.061 0 0 1-4.062 4.063 4.061 4.061 0 0 1-4.063-4.063v-12.187h-8.125v12.187a4.061 4.061 0 0 1-4.062 4.063A4.061 4.061 0 0 1 76 204.319V82.444a4.061 4.061 0 0 1 4.063-4.062h48.75zm19.124 31.738l45.42 45.348a4 4 0 0 1 .369.422l11.08 11.084a4.064 4.064 0 0 1 0 5.743 4.032 4.032 0 0 1-2.868 1.189 4.052 4.052 0 0 1-2.875-1.189l-8.609-8.61-5.749 5.75 8.615 8.614a4.064 4.064 0 0 1 0 5.744 4.05 4.05 0 0 1-2.87 1.188 4.052 4.052 0 0 1-2.873-1.188l-8.615-8.615-5.749 5.749 8.615 8.614a4.064 4.064 0 0 1 0 5.744 4.053 4.053 0 0 1-2.87 1.188 4.052 4.052 0 0 1-2.873-1.188l-8.615-8.615-5.749 5.749 8.61 8.609a4.064 4.064 0 0 1 0 5.743 4.032 4.032 0 0 1-2.87 1.189 4.052 4.052 0 0 1-2.874-1.189l-11.092-11.09a4.078 4.078 0 0 1-.42-.365l-10.887-10.888a4.064 4.064 0 0 1 0-5.743 4.064 4.064 0 0 1 5.744 0l8.013 8.013 28.789-28.788-42.546-42.464a4.064 4.064 0 0 1 0-5.743 4.056 4.056 0 0 1 5.749-.005zM124.75 86.507H84.125v97.5h40.625v-97.5z" fill="#4C2504" fill-rule="nonzero"/><g transform="rotate(56 22.375 243.021)" stroke="#4C2504" stroke-width="7"><path d="M8 16l-.392 48.533" stroke-linecap="round"/><circle cx="8" cy="8" r="8"/></g><g transform="rotate(33 -10.238 330.331)" stroke="#4C2504" stroke-width="7"><path d="M8 16l-.392 48.533" stroke-linecap="round"/><circle cx="8" cy="8" r="8"/></g></g></svg>